<?xml version="1.0" encoding="UTF-8" standalone="no"?>
<svg width="16" height="16" viewBox="0 0 24 24" fill="none" xmlns="http://www.w3.org/2000/svg">
  <path d="M8.51 6.03C7.84 5.75 7.12 5.59 6.33 5.59L5.44 5.59C4.29 5.59 3.19 5.87 2.22 6.43L3.16 7.7C3.86 7.33 4.64 7.15 5.44 7.15L6.33 7.15C6.9 7.15 7.41 7.27 7.88 7.46L8.51 6.03Z" fill="#4FC3F7"/>
  <path d="M19.14 16.85L19.14 21.2L17.58 21.2L17.58 16.85L19.14 16.85Z" fill="#4FC3F7"/>
  <path d="M14.78 9.87L13.79 9.87L13.79 10.86L14.78 10.86L14.78 9.87Z" fill="#4FC3F7"/>
  <path d="M11.05 16.85L11.05 21.2L9.49 21.2L9.49 16.85L11.05 16.85Z" fill="#4FC3F7"/>
  <path d="M11.82 5.01C11.6 5.01 11.38 5.01 11.17 5.02L11.17 6.58C11.38 6.57 11.6 6.57 11.82 6.57L11.82 5.01Z" fill="#4FC3F7"/>
  <path d="M15.11 5.27C14.88 5.19 14.65 5.12 14.41 5.07L14.41 6.65C14.54 6.68 14.67 6.72 14.8 6.76C14.93 6.81 15.05 6.86 15.18 6.91L15.75 5.45C15.54 5.38 15.33 5.32 15.11 5.27Z" fill="#4FC3F7"/>
  <path d="M15.31 9.87L15.31 13.82L13.26 13.82L13.26 9.87L15.31 9.87Z" fill="#4FC3F7"/>
  <path d="M17.58 14.14L18.36 14.14L18.36 15.29L17.58 15.29L17.58 14.14Z" fill="#4FC3F7"/>
  <path d="M10.27 14.14L11.05 14.14L11.05 15.29L10.27 15.29L10.27 14.14Z" fill="#4FC3F7"/>
  <path d="M9.49 14.14L10.27 14.14L10.27 15.29L9.49 15.29L9.49 14.14Z" fill="#4FC3F7"/>
  <path d="M18.36 14.14L19.14 14.14L19.14 15.29L18.36 15.29L18.36 14.14Z" fill="#4FC3F7"/>
  <path d="M12.66 1.8C13.27 2.03 13.84 2.25 14.38 2.47C15.12 2.77 15.81 3.06 16.48 3.36C18.12 4.1 19.53 4.85 20.79 5.69L20.79 2.8L12.66 1.8Z" fill="#4FC3F7"/>
  <path d="M20.79 9.87L20.79 5.69C19.53 4.85 18.12 4.1 16.48 3.36C15.81 3.06 15.12 2.77 14.38 2.47C13.84 2.25 13.27 2.03 12.66 1.8L9.63 1.39C9.1 1.3 8.56 1.25 8 1.25C7.12 1.25 6.26 1.38 5.44 1.63C4.61 1.87 3.85 2.23 3.16 2.7C2.47 3.17 1.86 3.74 1.36 4.42C0.85 5.09 0.46 5.84 0.21 6.67L0.21 14.73C0.46 15.56 0.85 16.31 1.36 16.98C1.86 17.66 2.47 18.23 3.16 18.7C3.85 19.17 4.61 19.53 5.44 19.77C6.26 20.02 7.12 20.15 8 20.15C8.88 20.15 9.74 20.02 10.56 19.77C11.39 19.53 12.15 19.17 12.84 18.7C13.53 18.23 14.14 17.66 14.64 16.98C15.15 16.31 15.54 15.56 15.79 14.73L15.79 13.82L20.79 13.82L20.79 9.87ZM6.33 7.15C6.9 7.15 7.41 7.27 7.88 7.46L8.51 6.03C7.84 5.75 7.12 5.59 6.33 5.59L5.44 5.59C4.29 5.59 3.19 5.87 2.22 6.43L3.16 7.7C3.86 7.33 4.64 7.15 5.44 7.15L6.33 7.15ZM11.17 6.58C11.38 6.57 11.6 6.57 11.82 6.57L11.82 5.01C11.6 5.01 11.38 5.01 11.17 5.02L11.17 6.58ZM14.41 6.65C14.54 6.68 14.67 6.72 14.8 6.76C14.93 6.81 15.05 6.86 15.18 6.91L15.75 5.45C15.54 5.38 15.33 5.32 15.11 5.27C14.88 5.19 14.65 5.12 14.41 5.07L14.41 6.65Z" fill="#4FC3F7" fill-rule="evenodd"/>
</svg> 